<svg xmlns="http://www.w3.org/2000/svg" version="1.1" xmlns:xlink="http://www.w3.org/1999/xlink" xmlns:svgjs="http://svgjs.com/svgjs" width="1143.59" height="1302.59"><svg id="SvgjsSvg1002" xmlns="http://www.w3.org/2000/svg" viewBox="0 0 1143.59 1302.59"><g id="SvgjsG1001"><path id="SvgjsPath1000" d="m319.09,678.91l88.34-167.26c6.5-12.3,1.89-27.55-10.34-34.19l-73.53-39.93c-7.55-4.1-16.66-4.11-24.22-.02L17.8,589.93c-8.15,4.41-13.24,12.9-13.31,22.16l-2.4,349.58c-.06,9.08,4.73,17.51,12.57,22.1l538.51,315.34c7.83,4.59,17.51,4.65,25.4.16l337.74-192.23c16.92-9.63,17.16-33.93.44-43.9l-588.19-350.54c-11.61-6.92-15.77-21.73-9.46-33.69Zm-145.17,204.33l5.21-66.9c1.48-19.04,22.66-29.7,38.83-19.54l404.26,253.77c16.45,10.32,15.7,34.53-1.35,43.82l-63.08,34.37c-8.13,4.43-18.03,4.09-25.83-.9l-346.38-221.24c-7.9-5.05-12.38-14.03-11.65-23.38Z" style="fill:#ff2e3c; stroke-width:0px;"></path><path d="m.58,337.54L0,432.65c-.12,19.34,20.32,31.89,37.5,23.03l268.2-138.33c7.82-4.03,17.16-3.79,24.76.66l186.86,109.26c10.87,6.36,15.55,19.66,11.04,31.43l-73.95,193.18c-4.55,11.89.27,25.32,11.33,31.59l594.45,337.17c7.98,4.53,17.76,4.46,25.68-.18l40.88-23.95c7.9-4.63,12.75-13.12,12.73-22.28l-.16-58.17c-.03-9.29-5.05-17.84-13.14-22.38l-488.94-274.26c-12.65-7.09-16.94-23.24-9.48-35.68l26.38-44.03c7.19-11.99,22.63-16.05,34.77-9.14l413.79,235.52c17.08,9.72,38.31-2.54,38.43-22.21l2.45-399.31c.06-9.19-4.79-17.72-12.72-22.37L587.02,3.53c-7.93-4.65-17.73-4.71-25.72-.16L13.58,315.33c-7.99,4.55-12.94,13.01-13,22.21Zm534.59-89.65l52.75-32.83c8.05-5.01,18.2-5.18,26.42-.45l385.15,221.9c7.97,4.59,12.89,13.1,12.89,22.3v64.4c0,19.82-21.45,32.2-38.6,22.28l-437.9-253.47c-16.81-9.73-17.19-33.87-.71-44.13Z" style="fill:#fff; stroke-width:0px;"></path></g></svg><style>@media (prefers-color-scheme: light) { :root { filter: none; } }
</style></svg>